<svg width="1279" height="351" viewBox="0 0 1279 351" fill="none" xmlns="http://www.w3.org/2000/svg">
<path d="M517.855 224.44H470.974L463.848 246.005H425.219L473.412 113.801H515.792L563.798 246.005H524.981L517.855 224.44ZM508.666 196.312L494.414 153.556L480.35 196.312H508.666ZM612.532 155.432C615.407 150.556 619.47 146.68 624.721 143.805C629.972 140.93 636.16 139.492 643.286 139.492C651.662 139.492 659.225 141.68 665.976 146.055C672.852 150.431 678.227 156.682 682.103 164.808C686.103 172.934 688.104 182.435 688.104 193.311C688.104 204.188 686.103 213.751 682.103 222.002C678.227 230.128 672.852 236.379 665.976 240.754C659.225 245.13 651.662 247.318 643.286 247.318C636.16 247.318 629.972 245.88 624.721 243.005C619.595 240.129 615.532 236.254 612.532 231.378V296.261H575.777V140.805H612.532V155.432ZM650.787 193.311C650.787 186.435 648.911 181.122 645.161 177.372C641.535 173.496 637.035 171.559 631.659 171.559C626.284 171.559 621.721 173.496 617.97 177.372C614.345 181.247 612.532 186.56 612.532 193.311C612.532 200.187 614.345 205.563 617.97 209.438C621.721 213.314 626.284 215.251 631.659 215.251C637.035 215.251 641.535 213.314 645.161 209.438C648.911 205.438 650.787 200.062 650.787 193.311ZM739.989 155.432C742.864 150.556 746.927 146.68 752.178 143.805C757.429 140.93 763.617 139.492 770.743 139.492C779.119 139.492 786.682 141.68 793.433 146.055C800.309 150.431 805.684 156.682 809.56 164.808C813.56 172.934 815.561 182.435 815.561 193.311C815.561 204.188 813.56 213.751 809.56 222.002C805.684 230.128 800.309 236.379 793.433 240.754C786.682 245.13 779.119 247.318 770.743 247.318C763.617 247.318 757.429 245.88 752.178 243.005C747.052 240.129 742.989 236.254 739.989 231.378V296.261H703.234V140.805H739.989V155.432ZM778.244 193.311C778.244 186.435 776.368 181.122 772.618 177.372C768.992 173.496 764.492 171.559 759.116 171.559C753.741 171.559 749.178 173.496 745.427 177.372C741.802 181.247 739.989 186.56 739.989 193.311C739.989 200.187 741.802 205.563 745.427 209.438C749.178 213.314 753.741 215.251 759.116 215.251C764.492 215.251 768.992 213.314 772.618 209.438C776.368 205.438 778.244 200.062 778.244 193.311ZM949.018 113.801V246.005H912.264V192.936H867.446V246.005H830.691V113.801H867.446V163.495H912.264V113.801H949.018ZM1070.56 192.186C1070.56 195.061 1070.38 197.937 1070 200.812H1000.43C1000.81 206.563 1002.37 210.876 1005.12 213.751C1007.99 216.502 1011.62 217.877 1015.99 217.877C1022.12 217.877 1026.5 215.126 1029.12 209.626H1068.31C1066.69 216.877 1063.5 223.377 1058.75 229.128C1054.12 234.754 1048.25 239.192 1041.12 242.442C1034 245.693 1026.12 247.318 1017.5 247.318C1007.12 247.318 997.868 245.13 989.742 240.754C981.741 236.379 975.427 230.128 970.802 222.002C966.301 213.876 964.051 204.313 964.051 193.311C964.051 182.31 966.301 172.809 970.802 164.808C975.302 156.682 981.553 150.431 989.554 146.055C997.68 141.68 1006.99 139.492 1017.5 139.492C1027.87 139.492 1037.06 141.617 1045.06 145.868C1053.06 150.118 1059.31 156.244 1063.81 164.245C1068.31 172.121 1070.56 181.435 1070.56 192.186ZM1033.06 182.997C1033.06 178.497 1031.56 174.996 1028.56 172.496C1025.56 169.871 1021.81 168.558 1017.31 168.558C1012.81 168.558 1009.12 169.808 1006.24 172.309C1003.37 174.684 1001.49 178.247 1000.62 182.997H1033.06ZM1122.36 159.37C1126.49 153.369 1131.49 148.618 1137.36 145.118C1143.24 141.617 1149.55 139.867 1156.3 139.867V179.059H1145.99C1137.99 179.059 1132.05 180.622 1128.17 183.748C1124.3 186.873 1122.36 192.311 1122.36 200.062V246.005H1085.61V140.805H1122.36V159.37ZM1218.42 247.318C1207.92 247.318 1198.48 245.13 1190.11 240.754C1181.85 236.379 1175.35 230.128 1170.6 222.002C1165.85 213.876 1163.48 204.313 1163.48 193.311C1163.48 182.435 1165.85 172.934 1170.6 164.808C1175.48 156.682 1182.04 150.431 1190.29 146.055C1198.67 141.68 1208.11 139.492 1218.61 139.492C1229.11 139.492 1238.49 141.68 1246.74 146.055C1255.11 150.431 1261.68 156.682 1266.43 164.808C1271.3 172.934 1273.74 182.435 1273.74 193.311C1273.74 204.188 1271.3 213.751 1266.43 222.002C1261.68 230.128 1255.11 236.379 1246.74 240.754C1238.36 245.13 1228.92 247.318 1218.42 247.318ZM1218.42 215.439C1223.55 215.439 1227.8 213.564 1231.17 209.813C1234.67 205.938 1236.42 200.437 1236.42 193.311C1236.42 186.185 1234.67 180.747 1231.17 176.997C1227.8 173.246 1223.61 171.371 1218.61 171.371C1213.61 171.371 1209.42 173.246 1206.04 176.997C1202.67 180.747 1200.98 186.185 1200.98 193.311C1200.98 200.562 1202.61 206.063 1205.86 209.813C1209.11 213.564 1213.3 215.439 1218.42 215.439Z" fill="white"/>
<g clip-path="url(#clip0_2_7)">
<path d="M173.069 0H178.334C204.737 0.399049 231.029 6.86084 254.569 18.8393C276.71 30.0512 296.414 46.0376 311.92 65.416C325.313 82.106 335.559 101.299 342.021 121.696C347.264 138.193 350.051 155.454 350.376 172.757V177.99C349.967 205.16 343.127 232.211 330.483 256.27C319.11 278.025 303.092 297.333 283.798 312.508C264.987 327.35 243.064 338.197 219.88 344.232C205.994 347.876 191.667 349.801 177.311 350.043H172.712C149.798 349.731 126.954 344.887 105.92 335.782C85.3693 326.922 66.5544 314.065 50.827 298.142C34.4835 281.627 21.5074 261.797 12.9244 240.203C4.95741 220.226 0.725391 198.789 0.333344 177.293V171.15C0.627379 160.236 1.80002 149.339 4.0753 138.659C9.29094 113.837 20.0408 90.206 35.2711 69.9316C52.1432 47.3923 74.5634 29.0431 100.022 17.0156C122.785 6.20976 147.887 0.455056 173.069 0ZM129.524 36.737C104.314 45.0855 81.3963 60.3824 64.2372 80.6744C47.9462 99.8742 36.6993 123.331 32.1207 148.1C28.5993 167.159 28.8618 186.916 32.9538 205.864C37.8894 228.511 48.2297 249.994 62.97 267.898C94.0783 202.608 125.099 137.273 156.246 72.0038C168.928 69.599 181.596 67.1242 194.271 64.6984C189.479 115.472 184.683 166.246 179.839 217.013C170.657 207.792 161.717 198.338 152.591 189.069C154.072 171.654 155.773 154.26 157.293 136.849C144.509 163.845 131.757 190.85 119.022 217.87C129.443 215.878 139.86 213.876 150.274 211.856C150.88 206.256 151.454 200.652 152.045 195.051C160.369 203.504 168.669 211.986 176.972 220.464C166.761 231.585 156.557 242.706 146.301 253.788C146.861 248.124 147.467 242.468 148.006 236.807C133.896 239.517 119.785 242.216 105.679 244.939C98.7304 259.714 91.8205 274.511 84.9212 289.31C100.39 301.639 118.452 310.667 137.554 315.781C160.614 321.983 185.191 322.281 208.448 316.943C220.052 314.188 231.33 310.057 241.957 304.642C259.771 295.594 275.618 282.737 288.251 267.265C301.43 251.149 311.084 232.169 316.348 212.028C322.537 188.173 322.625 162.749 316.513 138.872C310.527 115.738 298.916 94.0355 282.751 76.4143C281.155 92.2328 279.829 108.079 278.306 123.905C277.557 131.914 276.612 139.898 275.898 147.911C272.947 179.127 269.705 210.316 266.786 241.533C256.659 243.528 246.518 245.461 236.381 247.41C239.21 218.371 242.248 189.356 244.824 160.292C239.878 161.24 234.936 162.199 229.989 163.151C227.091 192.209 224.266 221.273 221.315 250.323C211.311 252.227 201.317 254.177 191.313 256.081C197.561 191.281 203.834 126.481 210.065 61.6775C220.076 59.7208 230.098 57.8026 240.116 55.8843C237.505 83.3417 234.852 110.792 232.244 138.253C237.235 137.294 242.23 136.349 247.219 135.376C249.977 107.922 252.742 80.4643 255.221 52.9825C246.995 47.7458 238.327 43.1813 229.258 39.5758C197.726 26.9253 161.735 26.0082 129.524 36.737Z" fill="#FF7500"/>
<path d="M146.522 259.973C157.401 248.047 168.256 236.093 179.135 224.16C177.942 235.824 176.731 247.48 175.484 259.137C165.431 261.072 155.371 262.987 145.318 264.951C145.605 263.288 145.234 261.293 146.522 259.973Z" fill="#FF7500"/>
</g>
<defs>
<clipPath id="clip0_2_7">
<rect width="350.043" height="350.043" fill="white" transform="translate(0.333344)"/>
</clipPath>
</defs>
</svg>
